<?xml version="1.0" encoding="UTF-8" standalone="no"?>
<!-- Created with Inkscape (http://www.inkscape.org/) -->

<svg
   width="64"
   height="64"
   viewBox="0 0 16.933333 16.933333"
   version="1.1"
   id="svg5"
   inkscape:version="1.1.1 (3bf5ae0d25, 2021-09-20)"
   sodipodi:docname="Icon.svg"
   inkscape:export-filename="C:\Users\nickm\git\omdc\spriggan-client\icon.png"
   inkscape:export-xdpi="96.000008"
   inkscape:export-ydpi="96.000008"
   xmlns:inkscape="http://www.inkscape.org/namespaces/inkscape"
   xmlns:sodipodi="http://sodipodi.sourceforge.net/DTD/sodipodi-0.dtd"
   xmlns:xlink="http://www.w3.org/1999/xlink"
   xmlns="http://www.w3.org/2000/svg"
   xmlns:svg="http://www.w3.org/2000/svg">
  <sodipodi:namedview
     id="namedview7"
     pagecolor="#505050"
     bordercolor="#ffffff"
     borderopacity="1"
     inkscape:pageshadow="0"
     inkscape:pageopacity="0"
     inkscape:pagecheckerboard="1"
     inkscape:document-units="mm"
     showgrid="false"
     units="px"
     width="64px"
     inkscape:zoom="8.7988368"
     inkscape:cx="22.389323"
     inkscape:cy="28.071892"
     inkscape:window-width="3840"
     inkscape:window-height="2066"
     inkscape:window-x="-11"
     inkscape:window-y="-11"
     inkscape:window-maximized="1"
     inkscape:current-layer="layer1" />
  <defs
     id="defs2">
    <linearGradient
       inkscape:collect="always"
       id="linearGradient53114">
      <stop
         style="stop-color:#475129;stop-opacity:0.98823529"
         offset="0"
         id="stop53110" />
      <stop
         style="stop-color:#8d8d8d;stop-opacity:0"
         offset="1"
         id="stop53112" />
    </linearGradient>
    <linearGradient
       inkscape:collect="always"
       id="linearGradient51469">
      <stop
         style="stop-color:#38290d;stop-opacity:1"
         offset="0"
         id="stop51465" />
      <stop
         style="stop-color:#3c3411;stop-opacity:0"
         offset="1"
         id="stop51467" />
    </linearGradient>
    <linearGradient
       inkscape:collect="always"
       id="linearGradient47345">
      <stop
         style="stop-color:#2c3a18;stop-opacity:1;"
         offset="0"
         id="stop47341" />
      <stop
         style="stop-color:#2c3a18;stop-opacity:0;"
         offset="1"
         id="stop47343" />
    </linearGradient>
    <linearGradient
       inkscape:collect="always"
       id="linearGradient44240">
      <stop
         style="stop-color:#3b5718;stop-opacity:1"
         offset="0"
         id="stop44236" />
      <stop
         style="stop-color:#758532;stop-opacity:0.96078432"
         offset="1"
         id="stop44238" />
    </linearGradient>
    <linearGradient
       inkscape:collect="always"
       id="linearGradient44232">
      <stop
         style="stop-color:#645435;stop-opacity:1;"
         offset="0"
         id="stop44228" />
      <stop
         style="stop-color:#503a10;stop-opacity:1"
         offset="1"
         id="stop44230" />
    </linearGradient>
    <linearGradient
       inkscape:collect="always"
       xlink:href="#linearGradient44232"
       id="linearGradient44234"
       x1="7.6554132"
       y1="12.687898"
       x2="7.7933955"
       y2="2.3222406"
       gradientUnits="userSpaceOnUse" />
    <radialGradient
       inkscape:collect="always"
       xlink:href="#linearGradient44240"
       id="radialGradient44242"
       cx="5.192431"
       cy="4.3897266"
       fx="5.192431"
       fy="4.3897266"
       r="0.71514162"
       gradientTransform="matrix(0.93987613,0.42988118,-1.2702834,2.7773001,5.4897069,-9.370047)"
       gradientUnits="userSpaceOnUse" />
    <linearGradient
       inkscape:collect="always"
       xlink:href="#linearGradient47345"
       id="linearGradient47347"
       x1="4.8993773"
       y1="4.0999739"
       x2="5.6604222"
       y2="4.0999739"
       gradientUnits="userSpaceOnUse"
       gradientTransform="translate(0.02657874,1.1056703)" />
    <linearGradient
       inkscape:collect="always"
       xlink:href="#linearGradient47345"
       id="linearGradient49975"
       gradientUnits="userSpaceOnUse"
       x1="4.8993773"
       y1="4.0999739"
       x2="5.6604222"
       y2="4.0999739"
       gradientTransform="matrix(-0.68106997,-0.52160817,-0.60875298,0.79485598,11.379141,4.6930624)" />
    <radialGradient
       inkscape:collect="always"
       xlink:href="#linearGradient51469"
       id="radialGradient52781"
       gradientUnits="userSpaceOnUse"
       gradientTransform="matrix(-0.96519625,9.9343399e-4,-3.4443794e-4,-0.33464951,15.815601,16.822552)"
       cx="8.0548878"
       cy="11.965281"
       fx="8.0548878"
       fy="11.965281"
       r="8.5305622" />
    <radialGradient
       inkscape:collect="always"
       xlink:href="#linearGradient51469"
       id="radialGradient52781-9"
       gradientUnits="userSpaceOnUse"
       gradientTransform="matrix(-0.96519625,9.9343399e-4,-3.4443794e-4,-0.33464951,15.815601,16.822552)"
       cx="8.0548878"
       cy="11.965281"
       fx="8.0548878"
       fy="11.965281"
       r="8.5305624" />
    <radialGradient
       inkscape:collect="always"
       xlink:href="#linearGradient51469"
       id="radialGradient52781-95"
       gradientUnits="userSpaceOnUse"
       gradientTransform="matrix(-0.96519625,9.9343399e-4,-3.4443794e-4,-0.33464951,15.815601,16.822552)"
       cx="8.0548878"
       cy="11.965281"
       fx="8.0548878"
       fy="11.965281"
       r="8.5305624" />
    <radialGradient
       inkscape:collect="always"
       xlink:href="#linearGradient51469"
       id="radialGradient52781-95-8"
       gradientUnits="userSpaceOnUse"
       gradientTransform="matrix(-0.96519625,9.9343399e-4,-3.4443794e-4,-0.33464951,15.815601,16.822552)"
       cx="8.0548878"
       cy="11.965281"
       fx="8.0548878"
       fy="11.965281"
       r="8.5305624" />
    <radialGradient
       inkscape:collect="always"
       xlink:href="#linearGradient53114"
       id="radialGradient52781-95-82"
       gradientUnits="userSpaceOnUse"
       gradientTransform="matrix(-0.96519625,9.9343399e-4,-3.4443794e-4,-0.33464951,15.815601,16.822552)"
       cx="8.0548878"
       cy="11.965281"
       fx="8.0548878"
       fy="11.965281"
       r="8.5305624" />
  </defs>
  <g
     inkscape:label="Layer 1"
     inkscape:groupmode="layer"
     id="layer1">
    <g
       id="g38384"
       transform="translate(0.32957474,0.43588918)"
       style="stroke-width:0.075;stroke-miterlimit:4;stroke-dasharray:none">
      <path
         style="fill:url(#radialGradient44242);fill-opacity:1;stroke:#000000;stroke-width:0.075;stroke-linecap:round;stroke-linejoin:bevel;stroke-miterlimit:4;stroke-dasharray:none;stroke-opacity:1;paint-order:fill markers stroke"
         d="M 4.6398484,5.7070733 C 5.0545883,6.2759811 5.4434289,6.03743 5.3680852,5.2503704 5.2966405,4.5040407 5.3188124,4.4748243 5.4315819,3.6417907 4.831347,4.2624157 4.7029843,4.3555389 4.2917562,4.9034029 3.8223719,5.5287463 4.1589044,6.0045924 4.6398484,5.7070733"
         id="path984"
         sodipodi:nodetypes="cscsc" />
      <path
         style="fill:url(#linearGradient44234);fill-opacity:1;stroke:#000000;stroke-width:0.075;stroke-linecap:round;stroke-linejoin:bevel;stroke-miterlimit:4;stroke-dasharray:none;stroke-opacity:1;paint-order:fill markers stroke"
         d="m 4.6398484,5.7070733 c 0,0 -0.2786906,0.8080297 -0.3124022,1.1027735 -0.2313032,-0.4179 -0.6836916,-1.0545543 -0.9272706,-1.2874389 -0.195286,-0.186712 0.7539608,0.886411 0.8065718,1.6074898 0.051619,0.7074751 0.091397,1.5312809 -0.3622565,1.9057605 -1.020389,0.8163112 -0.9661738,2.5391058 0.7315619,4.2230798 0.4107901,0.40746 1.6988121,0.237974 3.8759435,0.264458 1.9518947,0.09752 3.3209887,-1.486145 4.3163657,-3.455219 C 13.961901,7.7068965 12.388633,8.4479534 11.800902,8.5583119 11.063788,8.6858892 10.466271,8.9639986 9.6639822,8.5476803 9.1147209,8.2626613 8.7194416,7.9557937 8.4337013,7.6307682 7.6837034,6.7776563 7.6883562,5.799449 7.6440077,4.7628865 c 0,0 -0.063789,-2.1047129 2.9661733,-1.583772 3.029961,0.5209407 -0.01516,1.9865258 0.73099,2.8764044 1.806851,1.1928807 2.401126,1.940217 0.662927,0.1553817 C 11.261482,5.4483598 12.544388,4.8430828 12.875303,4.1153075 12.861818,3.5234114 13.621921,3.1115753 11.171068,2.5482111 9.3009637,2.1183407 8.470333,2.3947748 7.3872124,2.8616824 6.2669229,3.7051496 6.0093233,4.4216695 7.4207474,7.9204252 8.1526407,9.7347032 10.237539,9.744855 11.26933,9.4938787 12.655308,8.992881 12.598215,9.004934 12.066687,9.7490335 11.4568,10.60283 10.675238,11.102775 9.6320865,11.939111 8.0761858,13.047082 5.1033358,12.527216 4.4439422,11.971006 2.7749902,10.563214 4.3374966,9.3366744 5.0662595,9.0937534 5.7488046,8.8141517 6.4197323,8.8438152 6.8702454,9.1686202 7.0886288,9.3260673 6.6716217,8.4078761 4.6898928,8.6062111 v 0 C 4.7292642,7.5639109 4.5573357,7.4763325 4.4951831,7.1268877 4.4890268,6.2102044 4.5843665,5.8870247 4.6398484,5.7070733"
         id="path38861"
         sodipodi:nodetypes="ccsscscscsscscscscscscscscccc" />
    </g>
    <path
       style="fill:none;stroke:url(#linearGradient47347);stroke-width:0.05;stroke-linecap:butt;stroke-linejoin:miter;stroke-miterlimit:4;stroke-dasharray:none;stroke-opacity:1"
       d="m 4.9694231,6.1429625 v 0 C 5.2254125,5.7523589 5.3376429,4.8166397 5.7611567,4.0776801 v 0 M 5.0659119,5.9647524 C 5.3904722,5.8302613 5.6918792,5.975981 5.6885002,5.9517655 M 5.157988,5.6977275 C 5.4825481,5.5632363 5.6862267,5.6826445 5.682848,5.6584305 M 5.2594751,5.4346127 C 5.5840352,5.3001215 5.6599152,5.4157713 5.6565365,5.3915566 M 5.3346508,5.0963222 c 0.3245601,-0.1344911 0.3290233,-0.00381 0.3256446,-0.028021"
       id="path44391"
       sodipodi:nodetypes="cccccccccccc" />
    <path
       style="fill:none;stroke:url(#linearGradient49975);stroke-width:0.046338;stroke-linecap:butt;stroke-linejoin:miter;stroke-miterlimit:4;stroke-dasharray:none;stroke-opacity:1"
       d="M 5.0659119,5.9647524 C 4.9267356,5.6885581 4.4656474,5.5903971 4.48269,5.5729117 M 5.157988,5.6977275 C 5.0188118,5.421533 4.6104786,5.318839 4.6275207,5.3013539 M 5.2594751,5.4346127 C 5.1202989,5.1584186 4.8096526,5.1317134 4.8266945,5.1142286 M 5.3346508,5.0963222 C 5.1954745,4.8201279 5.0189126,4.8352205 5.0359522,4.8177386"
       id="path44391-9"
       sodipodi:nodetypes="cccccccc" />
    <path
       style="fill:url(#radialGradient52781);fill-opacity:1;stroke:#000000;stroke-width:0.265;stroke-linecap:butt;stroke-linejoin:miter;stroke-miterlimit:4;stroke-dasharray:none;stroke-opacity:0"
       d="M -7.8421423,17.171605 C 0.99295015,9.1485995 24.156957,13.311067 25.153703,17.428891"
       id="path50950"
       sodipodi:nodetypes="cc" />
    <path
       style="fill:url(#radialGradient52781-9);fill-opacity:1;stroke:#000000;stroke-width:0.265;stroke-linecap:butt;stroke-linejoin:miter;stroke-miterlimit:4;stroke-dasharray:none;stroke-opacity:0"
       d="M -7.8421426,17.171605 C 0.9929498,9.1485994 24.156957,13.311067 25.153703,17.428891"
       id="path50950-9"
       sodipodi:nodetypes="cc" />
    <path
       style="fill:url(#radialGradient52781-95);fill-opacity:1;stroke:#000000;stroke-width:0.265;stroke-linecap:butt;stroke-linejoin:miter;stroke-miterlimit:4;stroke-dasharray:none;stroke-opacity:0"
       d="M -7.8421423,17.171605 C 0.9929502,9.1485993 24.156957,13.311067 25.153703,17.428891"
       id="path50950-6"
       sodipodi:nodetypes="cc" />
    <path
       style="fill:url(#radialGradient52781-95-8);fill-opacity:1;stroke:#000000;stroke-width:0.265;stroke-linecap:butt;stroke-linejoin:miter;stroke-miterlimit:4;stroke-dasharray:none;stroke-opacity:0"
       d="M -7.8421418,17.171605 C 0.9929507,9.1485996 24.156957,13.311067 25.153703,17.428891"
       id="path50950-6-1"
       sodipodi:nodetypes="cc" />
    <path
       style="fill:url(#radialGradient52781-95-82);fill-opacity:1;stroke:#000000;stroke-width:0.265;stroke-linecap:butt;stroke-linejoin:miter;stroke-miterlimit:4;stroke-dasharray:none;stroke-opacity:0"
       d="M -7.8421418,17.171605 C 0.9929507,9.1485988 24.156957,13.311066 25.153703,17.428891"
       id="path50950-6-3"
       sodipodi:nodetypes="cc" />
  </g>
</svg>
